<?xml version="1.0" encoding="utf-8"?>
<!-- Generator: Adobe Illustrator 27.8.1, SVG Export Plug-In . SVG Version: 6.00 Build 0)  -->
<svg version="1.1" id="Camada_1" xmlns="http://www.w3.org/2000/svg" xmlns:xlink="http://www.w3.org/1999/xlink" x="0px" y="0px"
	 viewBox="0 0 340 70.8" style="enable-background:new 0 0 340 70.8;" xml:space="preserve">
<style type="text/css">
	.st0{fill:#00A66E;}
	.st1{fill-rule:evenodd;clip-rule:evenodd;fill:#00A66E;}
	.st2{fill:#231F20;}
	.st3{fill:#231F20;stroke:#29221E;stroke-width:0.177;stroke-linecap:square;stroke-miterlimit:10;}
	.st4{fill-rule:evenodd;clip-rule:evenodd;fill:#231F20;}
</style>
<polygon class="st0" points="27.6,8.2 27.3,8.2 27.2,8.2 27.1,8.2 27.1,8.2 22.9,12.9 19.3,16.9 16.1,20.4 13.5,23.4 11.2,25.8 
	9.4,27.9 7.9,29.5 6.7,30.8 5.7,31.9 5,32.7 4.5,33.3 4.1,33.7 3.8,34.1 3.6,34.4 3.3,34.8 3.1,35.2 2.9,35.6 2.7,35.9 2.5,36.3 
	2.4,36.6 2.3,36.8 2.3,37.1 2.2,37.3 2.2,37.5 2.3,37.7 2.3,37.9 2.4,38.1 2.5,38.3 2.8,38.8 3.1,39.5 7.1,43.6 10.6,47.2 
	13.7,50.3 16.2,52.9 18.4,55.2 20.3,57 21.8,58.6 22.9,59.8 23.9,60.7 24.6,61.4 25.1,61.9 25.4,62.2 25.6,62.4 25.7,62.5 
	25.7,62.5 28.8,62.5 31.5,62.5 33.8,62.6 35.8,62.6 37.5,62.6 38.8,62.6 40,62.6 40.9,62.6 41.6,62.6 42.2,62.6 42.5,62.6 
	42.8,62.6 42.9,62.6 43,62.6 43,62.6 39.1,58.4 35.6,54.7 32.5,51.5 30,48.8 27.8,46.5 26,44.6 24.5,43.1 23.3,41.8 22.4,40.8 
	21.7,40.1 21.2,39.6 20.9,39.3 20.7,39.1 20.6,38.9 20.6,38.9 20.6,38.9 20.3,38.5 20.1,38.1 19.9,37.8 19.7,37.5 19.6,37.2 
	19.5,37 19.5,36.8 19.5,36.6 19.5,36.4 19.6,36.2 19.6,36.1 19.7,35.9 19.9,35.5 20.2,35 20.3,34.8 20.6,34.5 21,34.1 21.4,33.5 
	22.7,32.1 24.2,30.3 26,28.2 28.1,26 30.2,23.6 32.4,21.1 34.6,18.7 36.7,16.3 38.7,14.1 40.4,12.2 41.9,10.5 43.1,9.3 43.8,8.5 
	44.1,8.2 41.1,8.2 38.4,8.2 36.1,8.2 34.2,8.2 32.5,8.2 31.1,8.2 30,8.2 29.1,8.2 28.4,8.2 27.9,8.2 "/>
<polygon class="st1" points="50.1,8.2 45.8,12.9 42.1,16.9 38.8,20.5 36,23.5 33.7,26.1 31.7,28.2 30.1,30 28.8,31.3 27.8,32.4 
	27,33.2 26.4,33.8 26.1,34.2 25.9,34.4 25.7,34.5 25.7,34.6 25.6,34.8 25.5,35 25.4,35.3 25.3,35.5 25.2,35.8 25.2,36 25.2,36.3 
	25.2,36.5 25.3,36.8 25.3,37 25.4,37.3 25.5,37.5 25.6,37.7 25.8,38 26,38.2 26.2,38.4 26.6,38.9 27.5,39.8 28.8,41.1 30.3,42.7 
	32.1,44.6 34.1,46.6 36.2,48.7 38.3,50.9 40.4,53.1 42.5,55.2 44.4,57.2 46.1,58.9 47.5,60.4 48.6,61.6 49.3,62.3 49.6,62.5 
	52.9,62.5 55.8,62.5 58.3,62.5 60.4,62.5 62.3,62.5 63.8,62.5 65.1,62.5 66.1,62.5 66.8,62.5 67.4,62.5 67.9,62.5 68.1,62.5 
	68.3,62.5 68.4,62.5 68.5,62.5 68.5,59.8 68.5,57.4 68.5,55.3 68.5,53.5 68.5,52 68.5,50.7 68.5,49.7 68.5,48.9 68.5,48.2 
	68.5,47.7 68.5,47.4 68.5,47.2 68.5,47 68.5,46.9 68.5,46.9 68.5,47 68.5,47.3 68.5,47.8 68.5,48.5 68.5,49.1 68.5,49.8 68.5,50.5 
	68.5,51.1 68.5,51.5 68.5,51.8 68.5,51.8 68.5,51.6 68.5,51 68.5,50.1 68.5,48.7 68.5,46.9 68.5,43.2 68.5,40.5 68.5,38.5 
	68.5,37.2 68.5,36.3 68.5,35.9 68.5,35.8 68.5,35.8 64.3,35.8 61.1,35.8 58.8,35.8 57.3,35.8 56.4,35.8 55.9,35.8 55.7,35.7 
	55.7,35.7 55.7,40.3 55.7,43.8 55.7,46.3 55.7,47.9 55.7,48.9 55.7,49.4 55.7,49.6 55.7,49.7 55.7,49.7 55.7,49.7 55.7,49.5 
	55.7,49.4 55.7,49.4 55.7,49.6 55.7,50 55.7,50.2 55.7,50.3 51.6,46.1 48.6,42.9 46.4,40.7 44.9,39.2 44,38.2 43.6,37.7 43.4,37.6 
	43.4,37.5 43.1,37.2 42.9,36.9 42.7,36.8 42.6,36.6 42.5,36.5 42.4,36.3 42.4,36.1 42.4,35.9 42.4,35.8 42.4,35.7 42.4,35.6 
	42.5,35.5 42.6,35.2 42.8,34.9 43,34.6 43.4,34.2 43.4,34.2 43.7,33.9 44.4,33.1 45.6,31.8 47.2,30.2 49,28.2 51,26 53.2,23.6 
	55.4,21.2 57.7,18.8 59.8,16.4 61.9,14.2 63.7,12.3 65.2,10.6 66.4,9.3 67.2,8.5 67.4,8.2 64.4,8.2 61.7,8.2 59.4,8.2 57.4,8.2 
	55.8,8.2 54.4,8.2 53.2,8.2 52.3,8.2 51.6,8.2 51,8.2 50.7,8.2 50.4,8.2 50.2,8.2 50.2,8.2 50.1,8.2 "/>
<polygon class="st2" points="236.8,62.2 238.3,62.2 238.1,62 237.9,61.6 237.6,61.1 237.5,60.9 "/>
<polygon class="st3" points="237.5,60.9 236.8,62.2 238.3,62.2 238.1,62 237.9,61.6 237.6,61.1 "/>
<path d="M108.6,45.6l0.1-0.2l0.1-0.3l0.1-0.3l0.2-0.4l0.1-0.4l0.2-0.5l0.2-0.5l0.2-0.5l0,0.3l0,0.3l0,0.4l0,0.4l0,0.4l0.1,0.4
	l0.1,0.4l0.1,0.5l1.2,6.3h-5.7L108.6,45.6z M106.1,35.9L93.6,61l-0.3,1.7l-0.7,0.2l0,0h7.9l2.6-5.1h9.4l1.1,5.1h7.3h-0.7l0.3-2
	l-5.3-25H106.1z M130.7,41.2h1.1h0.6l0.5,0l0.5,0.1l0.5,0.1l0.4,0.1l0.4,0.1l0.3,0.1l0.3,0.2l0.1,0.1l0.1,0.1l0.1,0.1l0.1,0.1
	l0.1,0.1l0.1,0.1l0.1,0.1L136,43l0.1,0.3l0.1,0.4l0,0.4l0,0.4l0,0.4l0,0.4l0,0.2l-0.1,0.2l0,0.2l-0.1,0.2l-0.1,0.2l-0.1,0.1
	l-0.1,0.2l-0.1,0.1l-0.1,0.1l-0.1,0.1l-0.1,0.1l-0.1,0.1l-0.2,0.1l-0.1,0.1l-0.2,0.1l-0.2,0.1l-0.4,0.2l-0.4,0.1l-0.4,0.1l-0.5,0.1
	l-0.5,0l-0.5,0h-2.3L130.7,41.2z M132.4,35.9h-0.8h-7.2l-3.9,25l0.4,2h6.4l1.6-10.3l5.2,10.3h8.2l-6.6-10.6l0.4-0.1l0.4-0.1l0.4-0.1
	l0.4-0.1l0.4-0.1l0.4-0.1l0.4-0.1l0.4-0.2l0.3-0.2l0.3-0.2l0.3-0.2l0.3-0.2l0.3-0.2l0.3-0.3l0.3-0.3l0.3-0.3l0.3-0.3l0.2-0.3
	l0.2-0.3l0.2-0.3l0.2-0.3l0.2-0.3l0.1-0.3l0.1-0.3l0.1-0.4l0.1-0.4l0.1-0.4l0.1-0.4l0.1-0.4l0-0.4l0-0.4v-0.4l0-0.6l0-0.6l-0.1-0.5
	l-0.1-0.5l-0.1-0.5l-0.2-0.5l-0.2-0.5l-0.3-0.5l-0.3-0.4l-0.3-0.4l-0.3-0.4l-0.4-0.4l-0.4-0.3l-0.4-0.3l-0.5-0.3l-0.5-0.3l-0.3-0.1
	l-0.3-0.1l-0.3-0.1l-0.3-0.1l-0.4-0.1l-0.4-0.1l-0.4-0.1l-0.4-0.1l-0.4-0.1l-0.5,0l-0.5,0l-0.6,0l-0.6,0l-0.7,0H132.4z M151.7,51.3
	h1.3l0.5,0l0.5,0l0.4,0l0.4,0.1l0.4,0.1l0.3,0.1l0.3,0.1l0.3,0.1l0.2,0.2l0.2,0.2l0.1,0.2l0.1,0.3l0.1,0.3l0.1,0.3l0,0.3l0,0.4
	l0,0.5L157,55l0,0.2l-0.1,0.2l0,0.2l-0.1,0.2l-0.1,0.2l-0.1,0.2l-0.1,0.1l-0.1,0.1l-0.1,0.1l-0.1,0.1l-0.1,0.1l-0.1,0.1l-0.1,0.1
	l-0.1,0.1l-0.2,0.1l-0.2,0.1l-0.2,0.1l-0.2,0.1l-0.3,0.1l-0.3,0.1l-0.6,0.1l-0.6,0.1l-0.7,0l-0.8,0h-0.9L151.7,51.3z M153.3,41.1h1
	l0.4,0l0.4,0l0.4,0l0.3,0.1l0.3,0.1l0.3,0.1l0.3,0.1l0.2,0.1l0.2,0.1l0.2,0.2l0.1,0.2l0.1,0.2l0.1,0.2l0.1,0.3l0,0.3l0,0.3l0,0.4
	l0,0.4l-0.1,0.3l-0.1,0.3l-0.1,0.1l-0.1,0.1l-0.1,0.1l-0.1,0.1l-0.1,0.1l-0.1,0.1l-0.1,0.1l-0.1,0.1l-0.1,0.1l-0.1,0.1l-0.1,0.1
	l-0.2,0.1l-0.4,0.1l-0.4,0.1l-0.5,0.1l-0.5,0.1l-0.6,0l-0.6,0h-0.6L153.3,41.1z M154.2,35.9h-0.9h-6.1l-4.3,27h7h1.9h1l0.9,0l0.9,0
	l0.8,0l0.7,0l0.6-0.1l0.6-0.1l0.5-0.1l0.4-0.1l0.4-0.1l0.4-0.1l0.4-0.1l0.4-0.1l0.3-0.1l0.3-0.2l0.3-0.2l0.4-0.3l0.4-0.3l0.4-0.3
	l0.3-0.3l0.3-0.4l0.3-0.4l0.3-0.4l0.2-0.4l0.2-0.4l0.2-0.4l0.2-0.5l0.1-0.5l0.1-0.5L164,56l0-0.5l0-0.5l0-0.3v-0.3l0-0.3l0-0.3
	l0-0.3l-0.1-0.3l-0.1-0.3l-0.1-0.3l-0.1-0.3l-0.1-0.2l-0.1-0.3l-0.1-0.2l-0.1-0.2l-0.1-0.2l-0.1-0.2l-0.2-0.2l-0.2-0.2l-0.2-0.2
	l-0.2-0.2l-0.2-0.2l-0.2-0.2l-0.2-0.1l-0.2-0.1l-0.2-0.1l-0.3-0.1l-0.3-0.1l-0.3-0.1l-0.3-0.1l-0.3-0.1l-0.3-0.1l-0.3-0.1l-0.3-0.1
	l0.3,0l0.3-0.1l0.3-0.1l0.3-0.1l0.3-0.1l0.3-0.1l0.3-0.1l0.3-0.1l0.3-0.1l0.2-0.1l0.3-0.2l0.2-0.2l0.2-0.2l0.2-0.2l0.2-0.2l0.2-0.2
	l0.2-0.2l0.2-0.2l0.2-0.3l0.1-0.2l0.1-0.3l0.1-0.3l0.1-0.3l0.1-0.3l0.1-0.3l0.1-0.3l0.1-0.3l0-0.3l0-0.3l0-0.3v-0.3l0-0.3l0-0.5
	l0-0.5l-0.1-0.4l-0.1-0.4l-0.1-0.4l-0.2-0.4l-0.2-0.4l-0.2-0.4l-0.3-0.4l-0.3-0.4l-0.3-0.3l-0.3-0.3l-0.4-0.3l-0.4-0.2l-0.4-0.2
	l-0.4-0.2l-0.3-0.1l-0.3-0.1l-0.3-0.1l-0.3-0.1l-0.7-0.1l-0.7-0.1l-0.4,0l-0.5,0l-0.5,0l-0.6,0l-0.7,0l-0.7,0H154.2z M233.7,41.2
	h1.1h0.6l0.5,0l0.5,0.1l0.4,0.1l0.4,0.1l0.4,0.1l0.3,0.1l0.3,0.2l0.1,0.1l0.1,0.1l0.1,0.1l0.1,0.1l0.1,0.1l0.1,0.1l0.1,0.1L239,43
	l0.1,0.3l0.1,0.4l0.1,0.4v0.4v0.4l-0.1,0.4l0,0.2l0,0.2l-0.1,0.2l-0.1,0.2l-0.1,0.2l-0.1,0.1l-0.1,0.2l-0.1,0.1l-0.1,0.1l-0.1,0.1
	l-0.1,0.1l-0.1,0.1l-0.1,0.1l-0.1,0.1l-0.2,0.1l-0.2,0.1l-0.4,0.2l-0.4,0.1l-0.4,0.1l-0.4,0.1l-0.5,0l-0.5,0h-2.3L233.7,41.2z
	 M235.3,35.9h-0.8h-7.2l-4.3,27h7.2l1.6-10.3l5.2,10.3h8.2H243l1.1-2.1l-5.3-8.5l0.4-0.1l0.4-0.1l0.4-0.1l0.4-0.1l0.4-0.1l0.4-0.1
	l0.4-0.1l0.3-0.2l0.3-0.2l0.3-0.2l0.3-0.2l0.3-0.2l0.3-0.2l0.3-0.3l0.3-0.3l0.3-0.3l0.3-0.3l0.2-0.3l0.2-0.3l0.2-0.3l0.2-0.3
	l0.1-0.3l0.1-0.3l0.1-0.3l0.1-0.4l0.1-0.4l0.1-0.4l0.1-0.4l0-0.4l0-0.4l0-0.4l0-0.4l0-0.6l-0.1-0.6l-0.1-0.5l-0.1-0.5l-0.1-0.5
	l-0.2-0.5l-0.2-0.5l-0.2-0.5l-0.3-0.4l-0.3-0.4l-0.3-0.4l-0.4-0.4l-0.4-0.3l-0.4-0.3l-0.5-0.3l-0.5-0.3l-0.3-0.1l-0.3-0.1l-0.3-0.1
	l-0.3-0.1l-0.4-0.1l-0.4-0.1l-0.4-0.1l-0.4-0.1l-0.4-0.1l-0.5,0l-0.5,0l-0.6,0l-0.6,0l-0.7,0H235.3z M259,45.6l0.1-0.2l0.1-0.3
	l0.1-0.3l0.2-0.4l0.2-0.4l0.2-0.5L260,43l0.2-0.5l0,0.3l0,0.3l0,0.4l0,0.4l0,0.4l0.1,0.4l0.1,0.4l0.1,0.5l1.2,6.3h-5.7L259,45.6z
	 M256.5,35.9L244,60.8l1.3,2.1h5.5l2.6-5.1h9.4l1.1,5.1h7.3h-0.7l0.3-1.9l-5.3-25H256.5z M274.8,35.9l-3.9,25l0.4,1.9h6.5l1.7-10.5
	h7.8l0.9-5.8h-7.8l0.7-4.5h8.4l1-6.2H274.8z M293.1,35.9l-4.3,27h7.4l4.3-27H293.1z M301.9,35.9l-1,6.3h6l-3.3,20.7h7.2l3.3-20.7
	h5.8l1-6.3H301.9z M322.5,35.9l-4.3,27h15.5l0.9-6h-8.3l0.7-4.5h7.8l0.9-5.9h-7.7l0.7-4.4h8.4l1-6.2H322.5z M178.4,57l-0.3,0
	l-0.3-0.1l-0.3-0.1l-0.3-0.1l-0.3-0.1l-0.3-0.1l-0.3-0.1l-0.3-0.1l-0.3-0.1l-0.3-0.2l-0.3-0.2l-0.2-0.2l-0.2-0.2l-0.2-0.2l-0.2-0.2
	l-0.2-0.3l-0.2-0.3l-0.2-0.3l-0.2-0.3l-0.1-0.3l-0.1-0.3l-0.1-0.3l-0.1-0.3l-0.1-0.3l-0.1-0.3l-0.1-0.3l0-0.4l0-0.4l0-0.4v-0.4v-0.4
	l0-0.4l0-0.4l0.1-0.4l0.1-0.4l0.1-0.4l0.1-0.4l0.1-0.4l0.1-0.4l0.2-0.4l0.2-0.3l0.2-0.3l0.2-0.3l0.2-0.3l0.3-0.3l0.3-0.3l0.3-0.3
	l0.3-0.3l0.3-0.3l0.3-0.2l0.3-0.2l0.3-0.2l0.3-0.2l0.3-0.2l0.4-0.1l0.4-0.1l0.4-0.1l0.4-0.1l0.4-0.1l0.4-0.1l0.4,0h0.4h0.3l0.4,0
	l0.3,0l0.3,0l0.3,0.1l0.3,0.1l0.3,0.1l0.3,0.1l0.3,0.1l0.3,0.1l0.3,0.2l0.3,0.2l0.3,0.2l0.3,0.2l0.2,0.2l0.2,0.2l0.2,0.2l0.2,0.3
	l0.2,0.3l0.2,0.3l0.1,0.3l0.2,0.3l0.1,0.3l0.1,0.3l0.1,0.3l0.1,0.3l0.1,0.3l0.1,0.3l0.1,0.3l0,0.3l0,0.4v0.4V49l0,0.4l0,0.4
	l-0.1,0.4l-0.1,0.4l-0.1,0.4l-0.1,0.4l-0.1,0.4l-0.1,0.4l-0.2,0.4l-0.2,0.4l-0.2,0.3l-0.2,0.3l-0.3,0.3l-0.3,0.3l-0.3,0.3l-0.3,0.3
	l-0.3,0.3l-0.3,0.3l-0.3,0.2l-0.3,0.2l-0.3,0.2l-0.3,0.2l-0.4,0.2l-0.3,0.1l-0.4,0.1l-0.4,0.1l-0.4,0.1l-0.4,0.1l-0.4,0l-0.4,0
	l-0.4,0h-0.4L178.4,57z M180.9,35.3h-0.4l-0.4,0l-0.5,0l-0.4,0l-0.4,0l-0.4,0.1l-0.4,0.1l-0.4,0.1l-0.4,0.1l-0.4,0.1l-0.4,0.1
	l-0.4,0.1l-0.4,0.1l-0.4,0.1l-0.4,0.1l-0.4,0.2l-0.4,0.2l-0.4,0.2l-0.4,0.2l-0.4,0.2l-0.4,0.2l-0.4,0.2l-0.3,0.2l-0.3,0.3l-0.3,0.3
	l-0.3,0.3l-0.3,0.3l-0.3,0.3l-0.3,0.3l-0.3,0.3l-0.3,0.3l-0.3,0.3l-0.4,0.5l-0.4,0.6l-0.4,0.6l-0.4,0.6l-0.3,0.6l-0.3,0.6l-0.3,0.6
	l-0.3,0.7l-0.2,0.7l-0.2,0.7l-0.2,0.7l-0.1,0.7l-0.1,0.7l-0.1,0.7l0,0.7l0,0.7l0,0.7l0,0.7l0.1,0.7l0.1,0.7l0.1,0.6l0.2,0.7l0.2,0.6
	l0.3,0.6l0.3,0.6l0.3,0.6l0.3,0.6l0.4,0.5l0.4,0.5l0.4,0.5l0.4,0.5l0.5,0.4l0.5,0.4l0.5,0.4l0.5,0.3l0.5,0.3l0.5,0.3l0.5,0.3
	l0.6,0.2l0.6,0.2l0.6,0.2l0.6,0.2l0.6,0.1l0.6,0.1l0.7,0.1l0.7,0.1l0.7,0l0.7,0h0.4l0.5,0l0.4,0l0.4,0l0.4,0l0.4-0.1l0.4-0.1
	l0.4-0.1l0.4-0.1l0.4-0.1l0.4-0.1l0.4-0.1l0.4-0.1l0.4-0.1l0.4-0.1l0.4-0.2l0.4-0.2l0.4-0.2l0.4-0.2l0.4-0.2l0.3-0.2l0.4-0.2
	l0.3-0.2l0.3-0.3l0.3-0.3l0.3-0.3l0.3-0.3l0.3-0.3l0.3-0.3l0.3-0.3l0.3-0.3l0.3-0.3l0.4-0.5l0.4-0.6l0.4-0.6l0.4-0.6l0.3-0.6
	l0.3-0.6l0.3-0.6l0.3-0.7l0.2-0.7l0.2-0.7l0.2-0.7l0.1-0.7l0.1-0.7l0.1-0.7l0-0.7l0-0.7l0-0.7l0-0.7l-0.1-0.7l-0.1-0.6l-0.1-0.6
	l-0.1-0.6l-0.2-0.6l-0.2-0.6l-0.3-0.6l-0.3-0.5l-0.3-0.5l-0.3-0.5l-0.4-0.5l-0.4-0.5l-0.4-0.5l-0.5-0.5l-0.5-0.4l-0.5-0.4l-0.5-0.4
	l-0.5-0.4l-0.5-0.3l-0.6-0.3l-0.6-0.3l-0.6-0.2l-0.6-0.2l-0.6-0.2l-0.7-0.1l-0.7-0.1l-0.7-0.1l-0.7-0.1l-0.7,0H180.9z M211,35.3
	h-0.8l-0.8,0.1l-0.8,0.1l-0.8,0.1l-0.8,0.1l-0.7,0.2l-0.7,0.2l-0.7,0.3l-0.7,0.3l-0.7,0.3l-0.6,0.4l-0.6,0.4l-0.6,0.4l-0.6,0.4
	l-0.5,0.5l-0.5,0.5l-0.5,0.6l-0.5,0.6l-0.5,0.6L198,42l-0.4,0.6l-0.4,0.7l-0.3,0.7l-0.3,0.7l-0.3,0.7l-0.2,0.7l-0.2,0.8l-0.2,0.8
	l-0.1,0.8l-0.1,0.8l-0.1,0.8l0,0.8l0,0.7l0,0.7l0.1,0.7l0.1,0.7l0.1,0.7l0.2,0.6l0.2,0.6l0.2,0.6l0.3,0.6l0.3,0.6l0.3,0.5l0.3,0.5
	l0.4,0.5l0.4,0.5l0.4,0.5l0.5,0.4l0.5,0.4l0.5,0.4l0.5,0.4l0.5,0.4l0.6,0.3l0.6,0.3l0.6,0.3l0.6,0.3l0.6,0.2l0.7,0.2l0.7,0.1
	l0.7,0.1l0.7,0.1l0.7,0.1l0.8,0l0.8,0l0.8,0l0.8,0l0.8-0.1l0.7-0.1l0.7-0.1l0.7-0.2l0.7-0.2l0.6-0.3l0.6-0.3l0.6-0.3l0.6-0.3
	l0.6-0.4l0.6-0.4l0.5-0.4l0.5-0.5l0.5-0.5l0.5-0.5l0.4-0.5l0.4-0.6l0.4-0.6l0.4-0.6L222,56l0.3-0.6l0.3-0.7l0.2-0.7l0.2-0.7l0.2-0.8
	l0.1-0.8l0.1-0.8l0.1-0.8l0.1-0.9l0-0.9l-13.5,0l-0.9,5.5h6.1l-0.2,0.4l-0.2,0.4l-0.2,0.4l-0.3,0.4l-0.3,0.3l-0.3,0.3l-0.3,0.3
	l-0.3,0.2l-0.4,0.2l-0.4,0.2L212,57l-0.5,0.1l-0.5,0.1l-0.5,0.1l-0.5,0l-0.5,0l-0.4,0l-0.4,0l-0.3,0l-0.3,0l-0.3-0.1l-0.3-0.1
	l-0.3-0.1l-0.3-0.1l-0.3-0.1l-0.3-0.1l-0.3-0.1l-0.3-0.2l-0.3-0.2l-0.3-0.2l-0.2-0.2l-0.2-0.2l-0.2-0.3l-0.2-0.3l-0.2-0.3l-0.2-0.3
	l-0.1-0.3l-0.1-0.3l-0.1-0.3l-0.1-0.3l-0.1-0.3l-0.1-0.3l-0.1-0.3l-0.1-0.4l0-0.4l0-0.4l0-0.4l0-0.4l0-0.5l0-0.4l0-0.4l0.1-0.4
	l0.1-0.4l0.1-0.4l0.1-0.4l0.1-0.4l0.1-0.4l0.2-0.4l0.2-0.4l0.2-0.3l0.2-0.4l0.2-0.3l0.3-0.3l0.3-0.3l0.3-0.3l0.3-0.3l0.3-0.3
	l0.3-0.3l0.3-0.2l0.3-0.2l0.3-0.2l0.4-0.2l0.4-0.1l0.4-0.1l0.4-0.1l0.4-0.1l0.4-0.1l0.4,0l0.4,0h0.4h0.5l0.5,0l0.5,0.1l0.5,0.1
	l0.4,0.1l0.4,0.1l0.4,0.2l0.4,0.2l0.4,0.2l0.3,0.3l0.3,0.3l0.3,0.3l0.3,0.4l0.3,0.4l0.3,0.4l0.3,0.4l5.7-3.9l-0.3-0.4l-0.3-0.4
	l-0.3-0.4l-0.3-0.4l-0.3-0.3l-0.3-0.3l-0.3-0.3l-0.3-0.3l-0.3-0.3l-0.3-0.3l-0.3-0.3l-0.3-0.3l-0.3-0.2l-0.3-0.2l-0.4-0.2l-0.4-0.2
	l-0.4-0.2l-0.4-0.2l-0.4-0.2l-0.4-0.1l-0.4-0.1l-0.4-0.1l-0.4-0.1l-0.4-0.1l-0.4-0.1l-0.4-0.1l-0.4-0.1l-0.5-0.1l-0.4,0l-0.5,0
	l-0.5,0H211z M89.3,35.3l-0.9,0l-0.9,0.1l-0.5,0l-0.4,0.1l-0.4,0.1l-0.4,0.1l-0.4,0.1l-0.4,0.1l-0.4,0.1L84.1,36l-0.4,0.1l-0.4,0.1
	l-0.4,0.2l-0.4,0.1l-0.4,0.2L81.8,37l-0.4,0.2l-0.4,0.2l-0.3,0.2l-0.3,0.2L80.1,38l-0.3,0.2l-0.3,0.3l-0.3,0.3l-0.3,0.3l-0.3,0.3
	l-0.3,0.3L78,39.8l-0.3,0.3l-0.3,0.3l-0.4,0.5l-0.4,0.5L76.3,42L76,42.6l-0.3,0.6l-0.3,0.6l-0.3,0.6l-0.2,0.6l-0.2,0.7l-0.2,0.7
	l-0.1,0.7l-0.1,0.7l-0.1,0.7L74,49.1l0,0.7l0,0.7l0,0.7l0,0.7l0.1,0.7l0.1,0.7l0.1,0.7l0.1,0.7l0.2,0.6l0.2,0.6l0.2,0.6l0.3,0.6
	l0.3,0.5l0.3,0.5l0.3,0.5l0.4,0.5l0.4,0.5l0.4,0.5l0.5,0.4l0.5,0.4l0.5,0.4l0.5,0.4l0.5,0.3l0.5,0.3l0.5,0.3l0.6,0.3l0.6,0.2
	l0.6,0.2l0.6,0.2l0.6,0.1l0.7,0.1l0.7,0.1l0.7,0h0.7h0.5h0.5l0.5,0l0.5,0l0.4,0l0.4,0l0.4,0l0.4-0.1l0.8-0.1l0.8-0.1l0.7-0.2l0,0
	l1-1.9l0.9-5.3L94,55.9L93.6,56l-0.4,0.1l-0.4,0.1l-0.4,0.1L92,56.5l-0.4,0.1l-0.4,0.1l-0.8,0.1L89.7,57l-0.4,0l-0.4,0l-0.4,0h-0.4
	h-0.4l-0.4,0l-0.4,0L86.7,57l-0.4-0.1L86,56.8l-0.3-0.1l-0.3-0.1L85,56.5l-0.3-0.1l-0.3-0.1l-0.3-0.2l-0.3-0.2l-0.3-0.2l-0.3-0.2
	l-0.2-0.2l-0.2-0.2l-0.2-0.3l-0.2-0.3l-0.2-0.3L82.2,54L82,53.7l-0.1-0.3l-0.1-0.3l-0.1-0.3l-0.1-0.3l-0.1-0.4l-0.1-0.4l-0.1-0.4
	l0-0.4l0-0.4l0-0.4l0-0.4l0-0.4l0-0.4l0.1-0.4l0.1-0.4l0.1-0.4l0.1-0.4l0.1-0.4l0.1-0.4l0.2-0.4l0.2-0.3l0.2-0.3l0.2-0.3l0.2-0.3
	l0.3-0.3l0.3-0.3l0.3-0.3l0.3-0.3l0.3-0.3l0.3-0.2L85,43l0.3-0.2l0.3-0.2l0.3-0.1l0.4-0.1l0.4-0.1l0.4-0.1l0.4-0.1l0.4-0.1l0.4-0.1
	l0.4,0H89h0.5l0.5,0l0.5,0l0.5,0.1l0.5,0.1l0.5,0.1l0.5,0.1l0.5,0.2l0.4,0.2l0.4,0.2l0.4,0.2l0.4,0.2l0.4,0.3l0.4,0.3l0.4,0.3
	l0.4,0.3l1.2-7.5L96.9,37l-0.5-0.2l-0.5-0.2l-0.5-0.2L95,36.2L94.5,36L94,35.9l-0.5-0.1L93,35.7l-0.5-0.1L92,35.5l-0.5-0.1l-0.5,0
	l-0.5,0l-0.5,0H89.3z"/>
<rect x="119.7" y="61" class="st2" width="1.5" height="1.9"/>
<rect x="242.4" y="60.8" class="st4" width="3.5" height="2.1"/>
<rect x="270.2" y="61" class="st2" width="1.5" height="1.9"/>
<polygon class="st4" points="93.2,60.8 94.4,61 93.7,62.7 92.2,62.8 "/>
</svg>
